<svg width="512" height="138" viewBox="0 0 512 138" fill="none" xmlns="http://www.w3.org/2000/svg">
<g clip-path="url(#clip0_10_148)">
<path d="M31.5723 0C14.1634 0 -1.74889e-05 14.214 -1.74889e-05 31.6862C-1.74889e-05 49.1564 14.1634 63.3714 31.5723 63.3714C48.9823 63.3714 63.1447 49.1564 63.1447 31.6862C63.1447 14.214 48.9823 0 31.5723 0Z" fill="#0B23A9"/>
<path d="M67.2943 99.22C55.9211 99.22 45.1749 96.3308 35.7424 91.2561V105.632C35.7424 123.076 49.622 137.551 67.0037 137.719C84.555 137.889 98.8881 123.611 98.8881 106.036V91.2434C89.4459 96.3298 78.6822 99.22 67.2943 99.22Z" fill="#0B23A9"/>
<path d="M71.4224 31.6874C71.3933 53.7301 53.5658 71.6281 31.5231 71.6779C23.0198 71.6983 15.0401 69.0404 8.52786 64.4016C20.0723 85.1068 42.0964 99.2273 67.2769 99.1829C103.856 99.2186 134.034 69.3371 134.637 32.6815L134.55 32.603C134.586 31.6897 134.541 32.4377 134.586 31.6897C134.6 14.2052 120.412 -0.0673421 103.076 -0.00963917C85.5755 0.0564843 71.4367 14.2029 71.4224 31.6874Z" fill="url(#paint0_linear_10_148)"/>
<path d="M491.008 57.0439C488.833 57.0439 487.14 57.6096 485.771 58.8222C484.402 60.0349 483.756 61.6517 483.756 63.6738C483.756 65.6948 484.402 67.3929 485.771 68.6056C487.14 69.8182 488.833 70.3839 491.008 70.3839C493.183 70.3839 494.875 69.8182 496.244 68.6056C497.613 67.3929 498.259 65.6948 498.259 63.6738C498.259 61.6517 497.613 60.0349 496.244 58.8222C494.875 57.6096 493.183 57.0439 491.008 57.0439ZM491.008 79.2785C485.529 79.2785 481.823 82.1893 481.823 87.0398C481.823 91.9726 485.529 94.8833 491.008 94.8833C496.486 94.8833 500.192 91.9726 500.192 87.0398C500.192 82.1893 496.486 79.2785 491.008 79.2785ZM511.23 88.4952C511.23 98.9254 503.496 105.394 491.008 105.394C478.439 105.394 470.786 98.9254 470.786 88.4952C470.786 82.5122 473.364 77.9847 478.52 74.8312C474.572 72.0017 472.638 68.0399 472.638 63.1081C472.638 57.8523 474.41 53.8092 477.875 50.8985C481.42 47.9878 485.771 46.5324 491.008 46.5324C496.244 46.5324 500.595 47.9878 504.06 50.8985C507.524 53.8092 509.296 57.8523 509.296 63.1081C509.296 68.1201 507.363 72.0017 503.415 74.8312C508.652 77.9847 511.23 82.5122 511.23 88.4952Z" fill="#0B23A9"/>
<path d="M210.815 47.5561L191.49 82.061V104.122H180.459V82.061L161.214 47.5561H173.776L186.014 71.1521L198.253 47.5561H210.815Z" fill="#0B23A9"/>
<path d="M250.025 94.345C255.178 94.345 259.525 92.6479 262.989 89.1734C266.452 85.699 268.223 81.2536 268.223 75.8393C268.223 70.426 266.452 65.9816 262.989 62.5061C259.525 59.0317 255.178 57.2543 250.025 57.2543C244.872 57.2543 240.524 59.0317 237.061 62.5061C233.598 65.9816 231.827 70.426 231.827 75.8393C231.827 81.2536 233.598 85.699 237.061 89.1734C240.524 92.6479 244.872 94.345 250.025 94.345ZM250.025 105.254C241.892 105.254 234.968 102.425 229.25 96.7693C223.613 91.032 220.796 84.0821 220.796 75.8393C220.796 67.5975 223.613 60.6475 229.25 54.9915C234.968 49.2533 241.892 46.4257 250.025 46.4257C258.158 46.4257 265.081 49.2533 270.799 54.9915C276.516 60.6475 279.335 67.5975 279.335 75.8393C279.335 84.0821 276.516 91.032 270.799 96.7693C265.081 102.425 258.158 105.254 250.025 105.254Z" fill="#0B23A9"/>
<path d="M309.526 93.4553H331.025V104.121H298.413V47.5561H309.526V93.4553Z" fill="#0B23A9"/>
<path d="M371.766 94.345C376.92 94.345 381.267 92.6479 384.729 89.1734C388.193 85.699 389.964 81.2536 389.964 75.8393C389.964 70.426 388.193 65.9816 384.729 62.5061C381.267 59.0317 376.92 57.2543 371.766 57.2543C366.613 57.2543 362.265 59.0317 358.802 62.5061C355.34 65.9816 353.569 70.426 353.569 75.8393C353.569 81.2536 355.34 85.699 358.802 89.1734C362.265 92.6479 366.613 94.345 371.766 94.345ZM371.766 105.254C363.634 105.254 356.709 102.425 350.992 96.7693C345.355 91.032 342.537 84.0821 342.537 75.8393C342.537 67.5975 345.355 60.6475 350.992 54.9915C356.709 49.2533 363.634 46.4257 371.766 46.4257C379.899 46.4257 386.823 49.2533 392.541 54.9915C398.257 60.6475 401.076 67.5975 401.076 75.8393C401.076 84.0821 398.257 91.032 392.541 96.7693C386.823 102.425 379.899 105.254 371.766 105.254Z" fill="#0B23A9"/>
<path d="M446.157 63.7178H457.591L442.292 104.122H430.455L415.156 63.7178H426.591L436.333 92.0009L446.157 63.7178Z" fill="#0B23A9"/>
</g>
<defs>
<linearGradient id="paint0_linear_10_148" x1="38.1942" y1="98.0567" x2="116.629" y2="11.4807" gradientUnits="userSpaceOnUse">
<stop stop-color="#09DBF0"/>
<stop offset="1" stop-color="#0B23A9"/>
</linearGradient>
<clipPath id="clip0_10_148">
<rect width="512" height="138" fill="white"/>
</clipPath>
</defs>
</svg>
